<svg xmlns="http://www.w3.org/2000/svg" width="13" height="17"><path fill-rule="evenodd" fill="#7347C1" d="M11.181 16.998H1.818A1.815 1.815 0 010 15.189V1.808C0 .811.815 0 1.818 0H8.68l4.319 4.281v10.908c0 .998-.816 1.809-1.818 1.809zm.678-12.278l-2.334.007a1.259 1.259 0 01-1.261-1.256v-2.37l-6.446.006a.704.704 0 00-.704.701v13.381c0 .387.316.702.704.702h9.363a.704.704 0 00.704-.702L11.859 4.72zM9.19 8.899c.645.3 1.03.723 1.03 1.372 0 1.149-.597 1.426-1.866 1.426-.528 0-1.05-.137-.914-.28l-.184-.859c.282.143.714.286 1.16.286.48 0 .734-.198.734-.499 0 .245-.22-.449-.775-.648-.769-.266-1.269.103-1.269-1.358 0-.785.658-1.385 1.749-1.385.521 0 .905.676 1.485.232L9.801 8.26c-.185-.323-.515-.453-.967-.453-.453 0-.672.313-.672.444 0 .293.261.423 1.028.648zM4.627 10.5c-.137 0-.261-.502-.357-.516v1.645H3.235V7.91c.322-.55.865-.915 1.413-.915.644 0 1.104.123 1.962.368-.255.233-.056.615-.056 1.065 0 .451-.151.832-.425 1.092-.357.335-.885.98-1.502.98zm.075-2.721a1.82 1.82 0 00-.432.041v1.358c.089.021.199.028.35.028.556 0 .899-.28.899-.751 0-.135-.295-.676-.817-.676z"/></svg>