<svg xmlns="http://www.w3.org/2000/svg" width="120" height="101"><path fill-rule="evenodd" fill="#FFF" d="M109.953 75.231H75.968l3.413 10.239c3.228.838 5.619 3.774 5.619 7.261v2.499h7.5a2.501 2.501 0 010 5.002H27.499a2.501 2.501 0 010-5.002H35v-2.499c0-3.487 2.39-6.424 5.618-7.261l3.692-10.239H10.46C4.507 75.231 0 70.724 0 65.184V10.278C0 4.739 4.507.232 10.46.232h99.493c5.54 0 10.047 4.507 10.046 10.046v54.906c0 5.54-4.507 10.047-10.046 10.047zm-67.453 15a2.502 2.502 0 00-2.5 2.5v2.499h40v-2.499c0-1.379-1.122-2.5-2.5-2.5h-35zm31.81-5.001l-3.613-9.999H49.301l-3.333 9.999H74.31zM115 15.232H20.431c-.931 0-2.5-1.12-2.5-2.501 0-1.381 1.569-2.5 2.5-2.5h94.566a5.051 5.051 0 00-5.044-5H10.47C7.264 5.231 5 7.496 5 10.278v47.454h94.968a2.499 2.499 0 110 5H5v2.452c0 2.782 2.264 5.047 5.47 5.047h99.483A5.053 5.053 0 00115 65.184V15.232zm-6.755 47.5h-1.058a2.501 2.501 0 010-5h1.058a2.5 2.5 0 110 5zM74.588 26.34l-3.326-.16-.48 3.622-1.6 12.625c-.022 1.315-1.33 2.26-2.636 2.171l-.001.005-19.063-1.268a2.497 2.497 0 01-2.292-2.061h-.002l-2.247-12.597c-.237-1.36.673-2.447 2.032-2.891a2.62 2.62 0 01.43-.037v-.002h12.91a2.5 2.5 0 110 5h-9.927l1.38 7.738 14.771.983 1.304-10.29.758-5.972c.154-1.233 1.207-1.986 3.181-1.936l4.827.27c1.375.05 3.323.638 3.263 2.013-.05 1.375-1.908 2.837-3.282 2.787zM51.417 46.936c1.377 0 2.5 1.664 2.5 2.501a2.505 2.505 0 01-2.5 2.499c-1.007 0-2.5-1.124-2.5-2.499 0-.837 1.493-2.501 2.5-2.501zm12.745 0c1.377 0 2.499 1.664 2.499 2.501a2.504 2.504 0 01-2.499 2.499 2.505 2.505 0 01-2.5-2.499c0-.837 1.123-2.501 2.5-2.501zM12.765 15.233h-1.123a2.501 2.501 0 010-5.001h1.123a2.5 2.5 0 110 5.001z"/></svg>