<svg xmlns="http://www.w3.org/2000/svg" width="100" height="100"><path fill-rule="evenodd" fill="#FFF" d="M93.636 74.34c-.153.275-.36.5-.276.79l-5.071 4.634 11.018 11.028a2.086 2.086 0 010 2.949l-5.64 5.644a2.08 2.08 0 01-2.946 0L79.702 88.358l-4.992 4.998a2.108 2.108 0 01-.719.467 50.473 50.473 0 01-4.104 2.002h.899c1.151 0 2.084.934 2.084 2.085 0 1.71-.933 2.086-2.084 2.086l-20.939-.001-.025.001h-.012l-.024-.001H29.117c-1.151 0-1.787-.375-1.787-2.085 0-1.151.636-2.085 1.787-2.085h.772c-1.688.045-3.338-1.571-4.94-2.496-11.52-6.657-19.775-17.452-23.241-30.401C-1.757 49.98.4 36.499 6.647 24.968 13.299 13.438 24.87 5.177 37.24 1.709 49.962-1.759 63.432.4 74.953 6.651 86.358 13.242 94.578 23.915 98.1 36.705c3.519 12.777 2.23 26.143-4.464 37.635zM74.315 87.852l3.914-3.918a2.087 2.087 0 012.947 0l11.018 11.029 2.694-2.697-11.019-11.027a2.084 2.084 0 010-2.949l3.914-3.917-18.397-4.932 4.929 18.411zm-1.446-77.589C62.312 4.164 49.965 2.557 38.103 5.737 26.241 8.918 16.351 16.488 10.256 27.53 4.161 37.62 2.555 49.977 5.733 61.848 8.911 73.72 16.476 83.617 27.33 89.717c13.035 7.704 29.667 8.081 43.459 1.079L64.427 67.32c-.193-1.007.013-1.775.539-2.16.526-.669 1.293-.875 2.013-.682l23.788 6.378c10.99-21.528 3.181-48.413-17.898-60.593zm15.859 31.488a2.085 2.085 0 01-2.552-1.474c-3.457-12.912-13.618-23.081-26.518-26.54a2.086 2.086 0 01-1.474-2.554c.298-.483 1.441-1.772 2.552-1.475C75.7 13.552 86.36 24.85 90.201 39.196a2.087 2.087 0 01-1.473 2.555zM56.704 57.849c-1.167 1.92-3.074 2.879-7.42 2.879-3.839 0-5.774-1.028-7.183-3.089-.435-.95-.653-2.832-.653-5.644V40.142c0-.554.267-.831.801-.831h2.612c.455 0 .683.277.683.831v12.745c0 1.564.207 2.633.623 4.063.554-.064 1.672.332 3.354.332 1.821 0 2.988-.376 3.719-1.128.219-.614.436-1.683.436-3.208V40.142c0-.554.268-.831.802-.831h2.404c.475 0 .712.277.712.831v11.794c0 1.584-.059 2.811-.177 3.684-.119.871.183 1.614-.713 2.229zm-3.789-45.28c-.052 0-.105-.002-.158-.007a38.101 38.101 0 00-1.562-.083c-.745-.041-2.05-1.007-2.01-2.157.04-1.15 1-2.052 2.155-2.011.587.019 1.168.051 2.35.093.526.086 2.07 1.087 1.301 2.236a2.085 2.085 0 01-2.076 1.929zM41.718 88.798a2.085 2.085 0 01-2.551 1.475C24.833 86.428 13.543 75.129 9.702 60.785c-.298-1.113.938-2.256 1.473-2.555a2.084 2.084 0 012.552 1.474c3.456 12.911 13.618 23.081 26.518 26.54 1.111.299 1.915 1.442 1.473 2.554zm-7.012-37.857c.623.781.935 1.876.935 3.282 0 3.127-1 4.615-2.998 5.407-1.148 1.23-3.166.683-6.055.683h-3.295c-1.069 0-1.855.337-2.359-.742-.505.179-.757-1.298-.757-2.407V42.609c0-2.179 1.038-3.268 3.116-3.268h3.473c1.128 0 2.206.06 3.334.178 1.603.177 2.859.678 3.671 1.681.811.641 1.217 1.95 1.217 3.34 0 1.286-.248 2.317-.742 3.089-.495.772-1.277 1.337-2.345 1.693 1.247.297 2.929.837 2.805 1.619zm-4.275-7.338c-.287-.347-.707-.608-1.261-.787-.435-.119-.36-.179-1.959-.179h-2.048c-.594 0-.891.358-.891 1.07v4.16H27.3c.97 0 1.811-.09 2.226-.269.89-.376 1.336-1.148 1.336-2.317 0-.772-.144-1.332-.431-1.678zm-.49 7.829c-.514-.198-1.434-.298-2.76-.298h-2.909v4.634c0 .396.085.685.253.862.168.177.46.267.875.267h2.197c1.128 0 1.939-.1 2.703-.296.681-.377 1.156-1.299 1.156-2.764 0-1.188-.505-1.99-1.515-2.405zm17.205 35.985c.507.039 1.032.066 1.56.085a2.085 2.085 0 01-.069 4.169l-.073-.001a43.405 43.405 0 01-1.73-.094 2.084 2.084 0 01.312-4.159zm15.039-48.048c.218-.078 1.326-.118 3.325-.118.474 0 .87.278 1.187 1.569 1.899 2.412 3.403 4.867 4.214 6.631.752-1.051 2.869-3.883 4.245-7.309.336-.594.742-.891 1.217-.891 2.377 0 3.367.05 2.998.15.238.098.356.266.356.504 0 .219-.118.535-.356.95l-6.53 10.635v7.961c0 .278-.079.496-.238.654a.76.76 0 01-.503.237h-2.584c-.534 0-.801.118-.801-.89V51.61l-6.53-10.696c-.257-.435-.386-.762-.386-.98 0-.257.129-.446.386-.565z"/></svg>