<svg xmlns="http://www.w3.org/2000/svg" width="16" height="16"><path fill-rule="evenodd" fill="#7347C1" d="M.166 7.665a7.5 7.5 0 1015 0 7.5 7.5 0 00-15 0zm.578 0c0-1.003.216-1.955.599-2.817l3.302 9.047a6.922 6.922 0 01-3.901-6.23zm6.922 6.922c-.68 0-1.336-.099-1.956-.281l2.078-6.034L9.915 14.1a.652.652 0 00.049.095 6.914 6.914 0 01-2.298.392zm5.594-7.052c.395-.987.527-1.776.527-1.965 0-.768-.017-1.005-.048-1.225a6.916 6.916 0 01-2.593 9.303l2.114-6.113zm-1.493-2.128c.533.461.571 1.053.571 1.909 0 .593-.176 1.338-.526 2.238l-.691 2.306-2.502-7.44c.751-.022.792-.065.792-.065.373-.045.329-.592-.043-.572 0 0-1.122.089-1.845.089-.681 0-1.823-.089-1.823-.089-.373-.02-.417.55-.045.572 0 0 1.245.043.727.065L7.46 7.375l-1.514 4.542L3.424 4.42c.418-.022.793-.065.793-.065.373-.045.328-.592-.044-.572 0 0-.653.089-1.846.089-.129 0 .123-.004-.444-.008A6.914 6.914 0 017.666.744c1.802 0 3.443.689 4.674 1.818-.03-.003-.06-.006-.089-.006-.682 0-.371.592-.371 1.228 0 .571-.463 1.053-.113 1.623z"/></svg>