<svg 
 xmlns="http://www.w3.org/2000/svg"
 xmlns:xlink="http://www.w3.org/1999/xlink"
 width="13px" height="17px">
<path fill-rule="evenodd"  fill="rgb(115, 71, 193)"
 d="M11.181,16.998 L1.818,16.998 C0.815,16.998 0.0,16.187 0.0,15.189 L0.0,1.808 C0.0,0.811 0.815,0.0 1.818,0.0 L8.680,0.0 L12.999,4.281 L12.999,15.189 C12.999,16.187 12.183,16.998 11.181,16.998 ZM11.859,4.720 L9.525,4.727 C8.828,4.727 8.264,4.164 8.264,3.471 L8.264,1.101 L1.818,1.107 C1.430,1.107 1.114,1.422 1.114,1.808 L1.114,15.189 C1.114,15.576 1.430,15.891 1.818,15.891 L11.181,15.891 C11.569,15.891 11.885,15.576 11.885,15.189 L11.859,4.720 ZM9.19,8.899 C9.835,9.199 10.220,9.622 10.220,10.271 C10.220,11.42 9.623,11.697 8.354,11.697 C7.826,11.697 7.304,11.560 7.44,11.417 L7.256,10.558 C7.538,10.701 7.970,10.844 8.416,10.844 C8.896,10.844 9.150,10.646 9.150,10.345 C9.150,10.59 8.930,9.896 8.375,9.697 C7.606,9.431 7.106,9.8 7.106,8.339 C7.106,7.554 7.764,6.954 8.855,6.954 C9.376,6.954 9.760,7.63 10.34,7.186 L9.801,8.26 C9.616,7.937 9.286,7.807 8.834,7.807 C8.381,7.807 8.162,8.12 8.162,8.251 C8.162,8.544 8.423,8.674 9.19,8.899 ZM4.627,10.5 C4.490,10.5 4.366,9.998 4.270,9.984 L4.270,11.629 L3.235,11.629 L3.235,7.91 C3.557,7.36 4.10,6.995 4.648,6.995 C5.292,6.995 5.752,7.118 6.61,7.363 C6.355,7.596 6.554,7.978 6.554,8.428 C6.554,8.879 6.403,9.260 6.129,9.520 C5.772,9.855 5.244,10.5 4.627,10.5 ZM4.702,7.779 C4.490,7.779 4.346,7.800 4.270,7.820 L4.270,9.178 C4.359,9.199 4.469,9.206 4.620,9.206 C5.176,9.206 5.519,8.926 5.519,8.455 C5.519,8.32 5.224,7.779 4.702,7.779 Z"/>
</svg>