<svg xmlns="http://www.w3.org/2000/svg" xmlns:xlink="http://www.w3.org/1999/xlink" width="120px" height="101px">
  <path fill-rule="evenodd" fill="rgb(255, 255, 255)"
    d="M109.953,75.231 L75.968,75.231 L79.381,85.470 C82.609,86.308 85.0,89.244 85.0,92.731 L85.0,95.230 L92.500,95.230 C93.880,95.230 95.0,96.350 95.0,97.731 C95.0,99.112 93.880,100.232 92.500,100.232 L81.89,100.232 L38.911,100.232 L38.910,100.232 L27.499,100.232 C26.119,100.232 24.999,99.112 24.999,97.731 C24.999,96.350 26.119,95.230 27.499,95.230 L35.0,95.230 L35.0,92.731 C35.0,89.244 37.390,86.307 40.618,85.470 L44.31,75.231 L10.46,75.231 C4.507,75.231 0.0,70.724 0.0,65.184 L0.0,10.278 C0.0,4.739 4.507,0.232 10.46,0.232 L109.953,0.232 C115.493,0.232 120.0,4.739 119.999,10.278 L119.999,65.184 C119.999,70.724 115.492,75.231 109.953,75.231 ZM42.500,90.231 C41.121,90.231 40.0,91.352 40.0,92.731 L40.0,95.230 L80.0,95.230 L80.0,92.731 C80.0,91.352 78.878,90.231 77.500,90.231 L42.500,90.231 ZM74.31,85.230 L70.697,75.231 L49.301,75.231 L45.968,85.230 L74.31,85.230 ZM115.0,15.232 L20.431,15.232 C19.50,15.232 17.931,14.112 17.931,12.731 C17.931,11.350 19.50,10.231 20.431,10.231 L114.997,10.231 C114.971,7.470 112.720,5.231 109.953,5.231 L10.47,5.231 C7.264,5.231 5.0,7.496 5.0,10.278 L5.0,57.732 L99.968,57.732 C101.349,57.732 102.468,58.850 102.468,60.231 C102.468,61.612 101.349,62.732 99.968,62.732 L5.0,62.732 L5.0,65.184 C5.0,67.966 7.264,70.231 10.47,70.231 L47.500,70.231 L72.500,70.231 L109.953,70.231 C112.736,70.231 115.0,67.966 115.0,65.184 L115.0,15.232 ZM108.245,62.732 L107.187,62.732 C105.807,62.732 104.687,61.612 104.687,60.231 C104.687,58.850 105.807,57.732 107.187,57.732 L108.245,57.732 C109.625,57.732 110.745,58.850 110.745,60.231 C110.745,61.612 109.625,62.732 108.245,62.732 ZM74.588,26.34 L71.262,26.18 L70.782,29.802 L69.182,42.427 C69.16,43.742 67.852,44.687 66.546,44.598 L66.545,44.603 L47.482,43.335 C46.311,43.256 45.383,42.383 45.190,41.274 L45.188,41.274 L42.941,28.677 C42.704,27.317 43.614,26.23 44.973,25.786 C45.117,25.762 45.261,25.749 45.403,25.749 L45.403,25.747 L58.313,25.747 C59.694,25.747 60.813,26.866 60.813,28.248 C60.813,29.628 59.694,30.747 58.313,30.747 L48.386,30.747 L49.766,38.485 L64.537,39.468 L65.841,29.178 L66.599,23.206 C66.753,21.973 67.806,21.22 69.78,21.27 L74.607,21.54 C75.982,21.59 77.93,22.178 77.87,23.553 C77.82,24.928 75.962,26.39 74.588,26.34 ZM51.417,46.936 C52.794,46.936 53.917,48.60 53.917,49.437 C53.917,50.812 52.794,51.936 51.417,51.936 C50.41,51.936 48.917,50.812 48.917,49.437 C48.917,48.60 50.41,46.936 51.417,46.936 ZM64.162,46.936 C65.539,46.936 66.661,48.60 66.661,49.437 C66.661,50.812 65.539,51.936 64.162,51.936 C62.785,51.936 61.662,50.812 61.662,49.437 C61.662,48.60 62.785,46.936 64.162,46.936 ZM12.765,15.233 L11.642,15.233 C10.261,15.233 9.142,14.112 9.142,12.731 C9.142,11.350 10.261,10.232 11.642,10.232 L12.765,10.232 C14.145,10.232 15.265,11.350 15.265,12.731 C15.265,14.113 14.145,15.233 12.765,15.233 Z" />
</svg>