<svg 
 xmlns="http://www.w3.org/2000/svg"
 xmlns:xlink="http://www.w3.org/1999/xlink"
 width="100px" height="100px">
<path fill-rule="evenodd"  fill="rgb(255, 255, 255)"
 d="M93.636,74.340 C93.483,74.615 93.276,74.840 93.36,75.13 L88.289,79.764 L99.307,90.792 C100.121,91.607 100.121,92.927 99.307,93.741 L93.667,99.385 C93.276,99.777 92.746,99.997 92.194,99.997 C91.641,99.997 91.112,99.777 90.721,99.385 L79.702,88.358 L74.710,93.356 C74.502,93.563 74.256,93.719 73.991,93.823 C72.653,94.553 71.283,95.220 69.887,95.825 L70.786,95.825 C71.937,95.825 72.870,96.759 72.870,97.910 C72.870,99.62 71.937,99.996 70.786,99.996 L49.847,99.995 C49.839,99.995 49.831,99.996 49.822,99.996 C49.818,99.996 49.815,99.996 49.810,99.996 C49.802,99.996 49.794,99.995 49.786,99.995 L29.117,99.995 C27.966,99.995 27.33,99.62 27.33,97.910 C27.33,96.759 27.966,95.825 29.117,95.825 L29.889,95.825 C28.201,95.87 26.551,94.254 24.949,93.329 C13.429,86.672 5.174,75.877 1.708,62.928 C-1.757,49.980 0.4,36.499 6.647,24.968 C13.299,13.438 24.87,5.177 37.24,1.709 C49.962,-1.759 63.432,0.4 74.953,6.651 C86.358,13.242 94.578,23.915 98.100,36.705 C101.619,49.482 100.33,62.848 93.636,74.340 ZM74.315,87.852 L78.229,83.934 C78.620,83.544 79.150,83.324 79.702,83.324 C80.255,83.324 80.785,83.544 81.176,83.934 L92.194,94.963 L94.888,92.266 L83.869,81.239 C83.478,80.848 83.259,80.318 83.259,79.764 C83.259,79.212 83.478,78.682 83.869,78.290 L87.783,74.373 L69.386,69.441 L74.315,87.852 ZM72.869,10.263 C62.312,4.164 49.965,2.557 38.103,5.737 C26.241,8.918 16.351,16.488 10.256,27.53 C4.161,37.620 2.555,49.977 5.733,61.848 C8.911,73.720 16.476,83.617 27.33,89.717 C40.365,97.421 56.997,97.798 70.789,90.796 L64.427,67.32 C64.234,66.313 64.440,65.545 64.966,65.16 C65.492,64.491 66.259,64.285 66.979,64.478 L90.767,70.856 C101.757,49.328 93.948,22.443 72.869,10.263 ZM88.728,41.751 C88.547,41.798 88.365,41.823 88.187,41.823 C87.267,41.823 86.425,41.208 86.176,40.277 C82.719,27.365 72.558,17.196 59.658,13.737 C58.546,13.438 57.886,12.295 58.184,11.183 C58.482,10.70 59.625,9.411 60.736,9.708 C75.70,13.552 86.360,24.850 90.201,39.196 C90.499,40.308 89.839,41.452 88.728,41.751 ZM56.704,57.849 C55.537,59.769 53.63,60.728 49.284,60.728 C45.445,60.728 43.51,59.700 42.101,57.639 C41.666,56.689 41.448,54.807 41.448,51.995 L41.448,40.142 C41.448,39.588 41.715,39.311 42.249,39.311 L44.861,39.311 C45.316,39.311 45.544,39.588 45.544,40.142 L45.544,52.887 C45.544,54.451 45.751,55.520 46.167,56.95 C46.721,56.886 47.839,57.282 49.521,57.282 C51.342,57.282 52.509,56.906 53.24,56.154 C53.459,55.540 53.676,54.471 53.676,52.946 L53.676,40.142 C53.676,39.588 53.944,39.311 54.478,39.311 L56.882,39.311 C57.357,39.311 57.594,39.588 57.594,40.142 L57.594,51.936 C57.594,53.520 57.535,54.747 57.417,55.620 C57.298,56.491 57.60,57.234 56.704,57.849 ZM52.915,12.569 C52.863,12.569 52.810,12.567 52.757,12.562 C52.252,12.525 51.727,12.496 51.195,12.479 C50.45,12.438 49.145,11.472 49.185,10.322 C49.225,9.172 50.185,8.270 51.340,8.311 C51.927,8.330 52.508,8.362 53.69,8.404 C54.216,8.490 55.76,9.491 54.991,10.640 C54.908,11.735 53.995,12.569 52.915,12.569 ZM41.718,88.798 C41.469,89.729 40.627,90.344 39.707,90.344 C39.529,90.344 39.347,90.321 39.167,90.273 C24.833,86.428 13.543,75.129 9.702,60.785 C9.404,59.672 10.64,58.529 11.175,58.230 C12.286,57.932 13.429,58.592 13.727,59.704 C17.183,72.615 27.345,82.785 40.245,86.244 C41.356,86.543 42.16,87.686 41.718,88.798 ZM34.706,50.941 C35.329,51.722 35.641,52.817 35.641,54.223 C35.641,57.35 34.641,58.838 32.643,59.630 C31.495,60.86 29.477,60.313 26.588,60.313 L23.293,60.313 C22.224,60.313 21.438,60.65 20.934,59.571 C20.429,59.75 20.177,58.273 20.177,57.164 L20.177,42.609 C20.177,40.430 21.215,39.341 23.293,39.341 L26.766,39.341 C27.894,39.341 28.972,39.401 30.1,39.519 C31.703,39.696 32.959,40.197 33.771,41.20 C34.582,41.841 34.988,43.15 34.988,44.540 C34.988,45.826 34.740,46.857 34.246,47.629 C33.751,48.401 32.969,48.966 31.901,49.322 C33.148,49.619 34.83,50.159 34.706,50.941 ZM30.431,43.603 C30.144,43.256 29.724,42.995 29.170,42.816 C28.735,42.697 28.81,42.637 27.211,42.637 L25.163,42.637 C24.569,42.637 24.272,42.995 24.272,43.707 L24.272,43.707 L24.272,47.867 L27.3,47.867 C28.270,47.867 29.111,47.777 29.526,47.598 C30.416,47.222 30.862,46.450 30.862,45.281 C30.862,44.509 30.718,43.949 30.431,43.603 ZM29.941,51.432 C29.427,51.234 28.507,51.134 27.181,51.134 L24.272,51.134 L24.272,55.768 C24.272,56.164 24.357,56.453 24.525,56.630 C24.693,56.807 24.985,56.897 25.400,56.897 L27.597,56.897 C28.725,56.897 29.536,56.797 30.30,56.601 C30.981,56.224 31.456,55.302 31.456,53.837 C31.456,52.649 30.951,51.847 29.941,51.432 ZM47.146,87.417 C47.653,87.456 48.178,87.483 48.706,87.502 C49.857,87.541 50.757,88.507 50.718,89.657 C50.679,90.783 49.754,91.671 48.637,91.671 C48.613,91.671 48.589,91.671 48.564,91.670 C47.980,91.649 47.398,91.619 46.834,91.576 C45.687,91.490 44.826,90.490 44.912,89.341 C44.998,88.193 45.998,87.331 47.146,87.417 ZM62.185,39.369 C62.403,39.291 63.511,39.251 65.510,39.251 C65.984,39.251 66.380,39.529 66.697,40.82 C68.596,43.232 70.1,45.687 70.911,47.451 C71.663,46.4 73.78,43.568 75.156,40.142 C75.492,39.548 75.898,39.251 76.373,39.251 C78.75,39.251 79.74,39.301 79.371,39.401 C79.609,39.499 79.727,39.667 79.727,39.905 C79.727,40.124 79.609,40.440 79.371,40.855 L72.841,51.490 L72.841,59.451 C72.841,59.729 72.762,59.947 72.603,60.105 C72.445,60.264 72.247,60.342 72.10,60.342 L69.516,60.342 C68.982,60.342 68.715,60.46 68.715,59.452 L68.715,59.452 L68.715,51.610 L62.185,40.914 C61.928,40.479 61.799,40.152 61.799,39.934 C61.799,39.677 61.928,39.488 62.185,39.369 Z"/>
</svg>