<svg 
 xmlns="http://www.w3.org/2000/svg"
 xmlns:xlink="http://www.w3.org/1999/xlink"
 width="16px" height="16px">
<path fill-rule="evenodd"  fill="rgb(115, 71, 193)"
 d="M0.166,7.665 C0.166,11.808 3.523,15.165 7.666,15.165 C11.807,15.165 15.166,11.808 15.166,7.665 C15.166,3.524 11.807,0.165 7.666,0.165 C3.523,0.165 0.166,3.524 0.166,7.665 ZM0.744,7.665 C0.744,6.662 0.960,5.710 1.343,4.848 L4.645,13.895 C2.336,12.774 0.744,10.405 0.744,7.665 ZM7.666,14.587 C6.986,14.587 6.330,14.488 5.710,14.306 L7.788,8.272 L9.915,14.100 C9.929,14.135 9.946,14.165 9.964,14.195 C9.245,14.448 8.471,14.587 7.666,14.587 ZM13.260,7.535 C13.655,6.548 13.787,5.759 13.787,5.57 C13.787,4.802 13.770,4.565 13.739,4.345 C14.279,5.331 14.587,6.461 14.587,7.666 C14.587,10.220 13.203,12.449 11.146,13.648 L13.260,7.535 ZM11.767,5.407 C12.30,5.868 12.338,6.460 12.338,7.316 C12.338,7.909 12.162,8.654 11.812,9.554 L11.121,11.860 L8.619,4.420 C9.37,4.398 9.411,4.355 9.411,4.355 C9.784,4.310 9.740,3.763 9.368,3.783 C9.368,3.783 8.246,3.872 7.523,3.872 C6.842,3.872 5.700,3.783 5.700,3.783 C5.327,3.763 5.283,4.333 5.655,4.355 C5.655,4.355 6.9,4.398 6.382,4.420 L7.460,7.375 L5.946,11.917 L3.424,4.420 C3.842,4.398 4.217,4.355 4.217,4.355 C4.590,4.310 4.545,3.763 4.173,3.783 C4.173,3.783 3.52,3.872 2.327,3.872 C2.198,3.872 2.45,3.868 1.883,3.864 C3.121,1.985 5.248,0.744 7.666,0.744 C9.468,0.744 11.109,1.433 12.340,2.562 C12.310,2.559 12.280,2.556 12.251,2.556 C11.569,2.556 11.88,3.148 11.88,3.784 C11.88,4.355 11.417,4.837 11.767,5.407 Z"/>
</svg>